<svg xmlns="http://www.w3.org/2000/svg" width="0" height="0"><symbol id="modal-close-button" viewBox="0 0 20 20" fill="none"><path d="M15 5 5 15M5 5l10 10" stroke="#141414" stroke-width="1.3" stroke-linecap="round" stroke-linejoin="round"/></symbol><symbol id="header-close-button" viewBox="0 0 24 24" fill="none"><path d="M18 6 6 18M6 6l12 12" stroke="#fff" stroke-width="1.3" stroke-linecap="round" stroke-linejoin="round"/></symbol><symbol id="ham-menu-svg" viewBox="0 0 20 14" fill="none"><path d="M0 .995C0 .445.446 0 .995 0h8.01a.995.995 0 0 1 0 1.99H.995A.995.995 0 0 1 0 .995ZM0 7c0-.55.446-.995.995-.995h18.01a.995.995 0 1 1 0 1.99H.995A.995.995 0 0 1 0 7Zm.995 5.01a.995.995 0 1 0 0 1.99h12.01a.995.995 0 1 0 0-1.99H.995Z" fill="#fff"/></symbol><symbol id="header-right-carousel" viewBox="0 0 8 14" fill="none"><path d="M7 13 1 7l6-6" stroke="#fff" stroke-opacity=".5" stroke-linecap="round" stroke-linejoin="round"/></symbol><symbol id="header-left-carousel" viewBox="0 0 24 27" fill="none"><g filter="url('#filter0_d_102_75')"><path d="m9 18 6-6-6-6" stroke="#fff" stroke-linecap="round" stroke-linejoin="round"/></g></symbol><symbol id="footer-youtube" viewBox="0 0 28 28" fill="none"><path fill-rule="evenodd" clip-rule="evenodd" d="M21.21 5.25c-1.19-.07-3.64-.14-7.35-.14h-.49c-3.57 0-5.95.07-7.14.21-1.61.14-2.73.56-3.36 1.12-.56.49-.98 1.4-1.12 2.59-.07.77-.14 2.38-.14 4.83v.35c0 2.31.07 3.92.21 4.69.21 1.12.56 1.96 1.26 2.45.7.56 1.89.91 3.57 1.05 1.19.07 3.64.14 7.35.14h.49c3.57 0 5.95-.07 7.14-.21 1.61-.14 2.73-.56 3.36-1.12.56-.49.98-1.4 1.12-2.59.07-.77.14-2.38.14-4.83v-.35c0-2.31-.07-3.92-.21-4.69-.21-1.12-.56-1.96-1.26-2.45-.7-.56-1.89-.91-3.57-1.05Zm-2.73 8.61-7.7 4.62V9.24l7.7 4.62Z" fill="#fff" opacity=".8"/></symbol><symbol id="footer-instagram" viewBox="0 0 28 28" fill="none"><g opacity=".8" fill="#fff"><path d="M25.128 9.411a8.096 8.096 0 0 0-.521-2.752 5.73 5.73 0 0 0-3.276-3.27 8.23 8.23 0 0 0-2.719-.52c-1.196-.054-1.576-.07-4.613-.07-3.038 0-3.427 0-4.615.07-.93.019-1.849.194-2.718.52a5.726 5.726 0 0 0-3.275 3.27 8.127 8.127 0 0 0-.521 2.714c-.054 1.196-.07 1.574-.07 4.607 0 3.032 0 3.42.07 4.607.018.929.194 1.846.52 2.716a5.729 5.729 0 0 0 3.277 3.268 8.2 8.2 0 0 0 2.718.56c1.198.053 1.577.069 4.615.069 3.038 0 3.427 0 4.615-.07a8.211 8.211 0 0 0 2.719-.52 5.736 5.736 0 0 0 3.275-3.27c.327-.87.503-1.785.521-2.716.054-1.194.07-1.573.07-4.607-.002-3.032-.002-3.417-.072-4.606ZM13.99 19.715a5.745 5.745 0 0 1-5.75-5.741 5.744 5.744 0 0 1 5.75-5.741c3.175 0 5.75 2.57 5.75 5.74a5.746 5.746 0 0 1-5.75 5.742Zm5.98-10.356a1.338 1.338 0 1 1 0-2.677 1.338 1.338 0 1 1 0 2.677Z"/><path d="M13.993 17.48a3.504 3.504 0 1 0 0-7.008 3.504 3.504 0 0 0 0 7.007Z"/></g></symbol><symbol id="footer-facebook" viewBox="0 0 28 28" fill="none"><path d="M17.08 4.06h.84v3.15h-1.05c-.42 0-.84 0-1.05.21-.21.21-.21.42-.21.91v1.12h2.31v2.66h-2.31v11.55h-3.57V12.04h-1.89V9.38h1.89v-.91c0-1.54.21-2.66.63-3.15.63-.91 1.89-1.33 3.78-1.33.21.07.42.07.63.07Z" fill="#fff" opacity=".8"/></symbol><symbol id="footer-logo" viewBox="0 0 50 50" fill="none"><path d="M43.951 29.006 33.408 4.855l-2.3-1.594-2.695-.858-3.646-.981-4.281 1.839-2.854 1.594 10.781 24.15h15.538Z" fill="url('#paint0_linear_102_110')"/><path d="m6.113 20.93 10.544 24.207 2.299 1.598 2.695.86 3.647.983 4.28-1.843 2.854-1.598-10.78-24.207H6.112Z" fill="url('#paint1_linear_102_110')"/><path d="M17.068 5.17.7 28.83l16.368.175L28.9 5.17c.831-2.438 3.43-1.016 4.626 0-5.11-9.363-13.101-3.901-16.458 0ZM32.932 44.83 49.3 21.17l-16.368-.175L21.099 44.83c-.83 2.438-3.43 1.016-4.625 0 5.11 9.363 13.101 3.901 16.458 0Z" fill="#fff"/><defs><linearGradient id="paint1_linear_102_110" x1="8.84" y1="20.93" x2="21.39" y2="44.353" gradientUnits="userSpaceOnUse"><stop stop-color="#0C0C0C"/><stop offset=".495" stop-color="#fff"/><stop offset="1" stop-color="#fff"/></linearGradient></defs></symbol><symbol id="header-logo" viewBox="0 0 19 19" fill="none"><path d="m16.701 11.022-4.006-9.178-.874-.605-1.024-.326L9.411.54l-1.626.699-1.085.605 4.097 9.178h5.904Z" fill="url('#paint0_linear_102_283')"/><path d="m2.323 7.954 4.007 9.198.873.607 1.024.327 1.386.374 1.627-.7 1.084-.608-4.097-9.199H2.323Z" fill="url('#paint1_linear_102_283')"/><path d="m6.486 1.965-6.22 8.99 6.22.067 4.496-9.057c.316-.927 1.304-.386 1.758 0-1.942-3.558-4.979-1.483-6.254 0ZM12.514 17.035l6.22-8.99-6.22-.067-4.496 9.057c-.316.927-1.304.387-1.758 0 1.942 3.558 4.979 1.483 6.254 0Z" fill="#fff"/><defs><linearGradient id="paint1_linear_102_283" x1="3.359" y1="7.954" x2="8.128" y2="16.854" gradientUnits="userSpaceOnUse"><stop stop-color="#0C0C0C"/><stop offset=".495" stop-color="#fff"/><stop offset="1" stop-color="#fff"/></linearGradient></defs></symbol><svg id="test1bla" width="16" height="2" viewBox="0 0 16 2" fill="none" xmlns="http://www.w3.org/2000/svg"><path d="M0 1h16" stroke="#141414"/></svg></svg>